<svg id="cloud" xmlns="http://www.w3.org/2000/svg" xmlns:xlink="http://www.w3.org/1999/xlink" viewBox="0 0 50 50"><defs><style>.cls-1,.cls-4{fill:#fff;}.cls-2{fill:#2392c9;}.cls-3{fill:url(#radial-gradient);}.cls-4{font-size:14px;font-family:Rockwell-CondensedBold, Rockwell Condensed;font-weight:700;}</style><radialGradient id="radial-gradient" cx="35.11" cy="35" r="13" gradientUnits="userSpaceOnUse"><stop offset="0.85"/><stop offset="0.98" stop-color="silver" stop-opacity="0.25"/><stop offset="1" stop-color="#fff" stop-opacity="0"/></radialGradient></defs><title>cloudFX1</title><path class="cls-1" d="M10,31.5A7.5,7.5,0,0,1,7.3,17l.37-.14,0-.4A10.22,10.22,0,0,1,7.5,15,10.5,10.5,0,0,1,28,11.73l.18.54.51-.24a5.47,5.47,0,0,1,7.28,2.57l.19.39.41-.13A8.5,8.5,0,1,1,39,31.5Z"/><path class="cls-2" d="M18,5a10,10,0,0,1,9.5,6.89L27.85,13l1-.48a5,5,0,0,1,6.61,2.34l.38.77.81-.25A8.35,8.35,0,0,1,39,15a8,8,0,0,1,0,16H10A7,7,0,0,1,7.48,17.48l.74-.29-.11-.79A10.72,10.72,0,0,1,8,15,10,10,0,0,1,18,5m0-1A10.92,10.92,0,0,0,7.12,16.54,8,8,0,0,0,10,32H39a9,9,0,1,0-2.61-17.61A6,6,0,0,0,31,11a5.89,5.89,0,0,0-2.55.58A11,11,0,0,0,18,4Z"/><circle class="cls-3" cx="35.11" cy="35" r="13"/><text class="cls-4" transform="translate(24.32 40.49)">FX1</text></svg>