<svg xmlns="http://www.w3.org/2000/svg" xmlns:xlink="http://www.w3.org/1999/xlink" viewBox="0 0 50 50"><defs><style>.cls-1,.cls-4{fill:#fff;}.cls-2{fill:#efc411;}.cls-3{fill:url(#radial-gradient);}.cls-4{font-size:14px;font-family:Rockwell-CondensedBold, Rockwell Condensed;font-weight:700;}</style><radialGradient id="radial-gradient" cx="35.11" cy="35" r="13" gradientUnits="userSpaceOnUse"><stop offset="0.85"/><stop offset="0.98" stop-color="silver" stop-opacity="0.25"/><stop offset="1" stop-color="#fff" stop-opacity="0"/></radialGradient></defs><title>lightFX1</title><g id="light1"><rect class="cls-1" x="3.91" y="33" width="11" height="2" transform="translate(-15.74 9.26) rotate(-30)"/><path class="cls-2" d="M13.49,31.07l.5.86-8.66,5-.5-.86,8.66-5m.37-1.37-10.39,6L5,38.3l10.39-6-1.5-2.6Z"/><rect class="cls-1" x="35.09" y="15" width="11" height="2" transform="translate(-2.56 22.44) rotate(-30)"/><path class="cls-2" d="M44.67,13.07l.5.86-8.66,5-.5-.86,8.66-5M45,11.7l-10.39,6,1.5,2.6,10.39-6L45,11.7Z"/><rect class="cls-1" x="10.5" y="39.59" width="11" height="2" transform="translate(-27.15 34.15) rotate(-60)"/><path class="cls-2" d="M18.07,36l.86.5-5,8.66-.86-.5,5-8.66m-.37-1.37L11.7,45l2.6,1.5,6-10.39-2.6-1.5Z"/><rect class="cls-1" x="28.5" y="8.41" width="11" height="2" transform="translate(8.85 34.15) rotate(-60)"/><path class="cls-2" d="M36.07,4.83l.86.5-5,8.66-.86-.5,5-8.66M35.7,3.47l-6,10.39,2.6,1.5L38.3,5l-2.6-1.5Z"/><circle class="cls-1" cx="25" cy="25" r="9.5"/><path class="cls-2" d="M25,16a9,9,0,1,1-9,9,9,9,0,0,1,9-9m0-1A10,10,0,1,0,35,25,10,10,0,0,0,25,15Z"/><rect class="cls-1" x="24" y="1.5" width="2" height="11"/><path class="cls-2" d="M25.5,2V12h-1V2h1m1-1h-3V13h3V1Z"/><rect class="cls-1" x="24" y="37.5" width="2" height="11"/><path class="cls-2" d="M25.5,38V48h-1V38h1m1-1h-3V49h3V37Z"/><rect class="cls-1" x="15" y="3.91" width="2" height="11" transform="translate(-2.56 9.26) rotate(-29.99)"/><path class="cls-2" d="M13.93,4.83l5,8.66-.86.5-5-8.66.86-.5m.37-1.36L11.7,5l6,10.39,2.6-1.5-6-10.39Z"/><rect class="cls-1" x="33" y="35.09" width="2" height="11" transform="translate(-15.74 22.43) rotate(-29.99)"/><path class="cls-2" d="M31.93,36l5,8.66-.86.5-5-8.66.86-.5m.37-1.37-2.6,1.5,6,10.39L38.3,45l-6-10.39Z"/><rect class="cls-1" x="8.41" y="10.5" width="2" height="11" transform="translate(-9.15 16.15) rotate(-59.99)"/><path class="cls-2" d="M5.33,13.07l8.66,5-.5.86-8.66-5,.5-.86M5,11.7l-1.5,2.6,10.39,6,1.5-2.6L5,11.7Z"/><rect class="cls-1" x="39.59" y="28.5" width="2" height="11" transform="translate(-9.15 52.16) rotate(-60.01)"/><path class="cls-2" d="M36.51,31.07l8.66,5-.5.86-8.66-5,.5-.86m-.37-1.37-1.5,2.6L45,38.3l1.5-2.6-10.39-6Z"/><rect class="cls-1" x="1.5" y="24" width="11" height="2"/><path class="cls-2" d="M12,24.5v1H2v-1H12m1-1H1v3H13v-3Z"/><rect class="cls-1" x="37.5" y="24" width="11" height="2"/><path class="cls-2" d="M48,24.5v1H38v-1H48m1-1H37v3H49v-3Z"/><circle class="cls-3" cx="35.11" cy="35" r="13"/><text class="cls-4" transform="translate(24.32 40.49)">FX1</text></g></svg>